<svg xmlns="http://www.w3.org/2000/svg" width="180" height="41" viewBox="0 0 180 41">
  <path fill="#366161" fill-rule="evenodd" d="M173.4507,32.0726 L173.4507,34.7306 L179.8997,34.7306 L179.8997,37.9566 L169.0917,37.9566 L169.0917,23.5066 L180.0287,23.5066 L179.6937,26.7316 L173.4507,26.7316 L173.4507,29.1056 L178.8677,29.1056 L178.8677,32.0726 L173.4507,32.0726 Z M163.1107,29.1826 C164.8117,29.8026 166.6437,30.7316 166.6437,33.4146 C166.6437,37.9566 163.0837,38.2146 160.2727,38.2146 C158.1317,38.2146 155.7857,37.4926 155.7857,37.4926 L155.7857,34.1366 C155.7857,34.1366 158.5967,34.9376 160.0147,34.9376 C161.4847,34.9376 162.2857,34.6796 162.2857,33.7246 C162.2857,32.8986 161.4847,32.6926 160.3247,32.2536 L159.2157,31.8416 C157.5637,31.2216 155.8367,30.2406 155.8367,27.7626 C155.8367,23.7906 159.0877,23.2486 161.9487,23.2486 C164.4767,23.2486 166.1287,23.9976 166.1287,23.9976 L166.1287,27.1446 C166.1287,27.1446 163.8057,26.3966 162.2067,26.3966 C160.8657,26.3966 160.1427,26.6536 160.1427,27.4546 C160.1427,28.2026 160.9947,28.4086 162.0527,28.7966 L163.1107,29.1826 Z M150.0347,23.5066 L150.0347,34.6536 L155.0137,34.6536 L154.5997,37.9566 L145.6767,37.9566 L145.6767,23.5066 L150.0347,23.5066 Z M143.2807,26.7316 L137.0377,26.7316 L137.0377,29.1056 L142.4537,29.1056 L142.4537,32.0726 L137.0377,32.0726 L137.0377,34.7306 L143.4867,34.7306 L143.4867,37.9566 L132.6787,37.9566 L132.6787,23.5066 L143.6157,23.5066 L143.2807,26.7316 Z M124.9687,27.8926 L124.9687,23.5066 L129.1997,23.5066 L129.1997,37.9566 L125.0207,37.9566 L121.9517,32.4086 C121.1777,30.9896 120.1717,28.7446 120.1717,28.7446 C120.1717,28.7446 120.5587,31.2736 120.5587,33.1826 L120.5587,37.9566 L116.3287,37.9566 L116.3287,23.5066 L120.6367,23.5066 L123.4737,28.5386 C124.4527,30.2926 125.3297,32.5106 125.3297,32.5106 C125.3297,32.5106 124.9687,29.8026 124.9687,27.8926 Z M108.6197,27.8926 L108.6197,23.5066 L112.8497,23.5066 L112.8497,37.9566 L108.6717,37.9566 L105.6017,32.4086 C104.8277,30.9896 103.8227,28.7446 103.8227,28.7446 C103.8227,28.7446 104.2087,31.2736 104.2087,33.1826 L104.2087,37.9566 L99.9787,37.9566 L99.9787,23.5066 L104.2857,23.5066 L107.1237,28.5386 C108.1027,30.2926 108.9807,32.5106 108.9807,32.5106 C108.9807,32.5106 108.6197,29.8026 108.6197,27.8926 Z M89.2777,32.1766 L92.5277,32.1766 L91.9087,29.7766 C91.3917,27.7376 90.9027,25.5706 90.9027,25.5706 C90.9027,25.5706 90.4377,27.6866 89.8957,29.7766 L89.2777,32.1766 Z M87.9097,23.5066 L93.8937,23.5066 L98.3567,37.9566 L93.8167,37.9566 L93.1207,35.2216 L88.6837,35.2216 L87.9877,37.9566 L83.4477,37.9566 L87.9097,23.5066 Z M74.8097,34.8346 C77.1057,34.8346 78.2407,34.2666 78.2407,30.7316 C78.2407,27.0936 77.1057,26.6296 74.8877,26.6296 L74.0877,26.6296 L74.0877,34.8346 L74.8097,34.8346 Z M74.1647,23.5066 C79.1947,23.5066 82.5997,24.1256 82.5997,30.7316 C82.5997,37.1826 79.2717,37.9566 74.2677,37.9566 L69.7287,37.9566 L69.7287,23.5066 L74.1647,23.5066 Z M59.2337,34.8346 C61.5297,34.8346 62.6637,34.2666 62.6637,30.7316 C62.6637,27.0936 61.5297,26.6296 59.3107,26.6296 L58.5117,26.6296 L58.5117,34.8346 L59.2337,34.8346 Z M58.5887,23.5066 C63.6177,23.5066 67.0237,24.1256 67.0237,30.7316 C67.0237,37.1826 63.6967,37.9566 58.6917,37.9566 L54.1527,37.9566 L54.1527,23.5066 L58.5887,23.5066 Z M46.3917,32.4606 L46.3917,23.5066 L50.7507,23.5066 L50.7507,32.4346 C50.7507,36.3826 48.7387,38.2146 44.5087,38.2146 C40.0727,38.2146 38.2407,36.5376 38.2407,32.4346 L38.2407,23.5066 L42.5997,23.5066 L42.5997,32.4606 C42.5997,34.2926 43.0897,35.0926 44.5087,35.0926 C45.8497,35.0926 46.3917,34.4216 46.3917,32.4606 Z M70.6577,16.2875 L70.6577,21.0605 L66.4277,21.0605 L66.4277,6.6105 L70.7347,6.6105 L73.5727,11.6425 C74.5527,13.3965 75.4297,15.6165 75.4297,15.6165 C75.4297,15.6165 75.0687,12.9075 75.0687,10.9975 L75.0687,6.6105 L79.2987,6.6105 L79.2987,21.0605 L75.1197,21.0605 L72.0507,15.5135 C71.2767,14.0945 70.2707,11.8495 70.2707,11.8495 C70.2707,11.8495 70.6577,14.3775 70.6577,16.2875 Z M58.5367,21.0605 L58.5367,6.6105 L62.9477,6.6105 L62.9477,21.0605 L58.5367,21.0605 Z M54.5417,6.6105 L55.1877,21.0605 L50.8537,21.0605 L50.7767,16.3645 C50.7507,14.6365 51.0347,11.6165 51.0347,11.6165 C51.0347,11.6165 50.0537,13.7325 49.0997,15.2035 L46.7007,18.8675 L44.2767,15.2035 C43.3737,13.8355 42.3417,11.6425 42.3417,11.6425 C42.3417,11.6425 42.6777,14.5325 42.6257,16.3645 L42.5227,21.0605 L38.1887,21.0605 L38.8597,6.6105 L42.2907,6.6105 L46.7007,13.7085 L51.1627,6.6105 L54.5417,6.6105 Z M11.2968,19.931 C13.3788,20.785 15.0828,23.58 15.0828,26.144 L15.0828,40.488 L3.7858,35.856 C1.7038,35.001 -0.0002,32.205 -0.0002,29.641 L-0.0002,15.298 L11.2968,19.931 Z M20.2397,19.931 L31.5357,15.298 L31.5357,29.641 C31.5357,32.205 29.8327,35.001 27.7507,35.856 L16.4537,40.488 L16.4537,26.144 C16.4537,23.58 18.1567,20.785 20.2397,19.931 Z M31.5361,13.9349 L31.0571,14.1309 L24.6251,16.7679 L24.6251,13.4239 C24.6251,11.9559 24.1651,10.3909 23.3291,9.0189 C22.4731,7.6139 21.3111,6.5569 20.0571,6.0419 L16.4531,4.5649 L16.4531,-0.0001 L27.7501,4.6319 C29.8321,5.4859 31.5361,8.2829 31.5361,10.8459 L31.5361,13.9349 Z M11.7754,18.7631 L0.4784,14.1311 L0.0164,13.9421 L0.0164,7.5141 L11.3134,12.1461 C13.3954,12.9991 15.0984,15.7951 15.0984,18.3601 L15.0984,21.8261 C15.0824,21.7971 15.0654,21.7681 15.0474,21.7401 C14.1914,20.3341 13.0294,19.2781 11.7754,18.7631 Z M19.7607,18.7631 C18.5067,19.2781 17.3447,20.3341 16.4887,21.7401 C16.4447,21.8111 16.4017,21.8841 16.3607,21.9571 L16.3607,18.3601 C16.3607,16.8911 15.8997,15.3271 15.0637,13.9551 C14.2077,12.5501 13.0467,11.4931 11.7917,10.9791 L8.2817,9.5391 L8.2817,2.5771 L19.5787,7.2091 C21.6607,8.0641 23.3637,10.8601 23.3637,13.4241 L23.3637,17.2851 L19.7607,18.7631 Z"/>
</svg>
