<svg xmlns="http://www.w3.org/2000/svg" width="32" height="41" viewBox="0 0 32 41">
  <path fill="#366161" fill-rule="evenodd" d="M11.2968,19.931 C13.3788,20.785 15.0828,23.58 15.0828,26.144 L15.0828,40.488 L3.7858,35.856 C1.7038,35.001 -0.0002,32.205 -0.0002,29.641 L-0.0002,15.298 L11.2968,19.931 Z M20.2397,19.931 L31.5357,15.298 L31.5357,29.641 C31.5357,32.205 29.8327,35.001 27.7507,35.856 L16.4537,40.488 L16.4537,26.144 C16.4537,23.58 18.1567,20.785 20.2397,19.931 Z M31.5361,13.9349 L31.0571,14.1309 L24.6251,16.7679 L24.6251,13.4239 C24.6251,11.9559 24.1651,10.3909 23.3291,9.0189 C22.4731,7.6139 21.3111,6.5569 20.0571,6.0419 L16.4531,4.5649 L16.4531,-0.0001 L27.7501,4.6319 C29.8321,5.4859 31.5361,8.2829 31.5361,10.8459 L31.5361,13.9349 Z M11.7754,18.7631 L0.4784,14.1311 L0.0164,13.9421 L0.0164,7.5141 L11.3134,12.1461 C13.3954,12.9991 15.0984,15.7951 15.0984,18.3601 L15.0984,21.8261 C15.0824,21.7971 15.0654,21.7681 15.0474,21.7401 C14.1914,20.3341 13.0294,19.2781 11.7754,18.7631 Z M19.7607,18.7631 C18.5067,19.2781 17.3447,20.3341 16.4887,21.7401 C16.4447,21.8111 16.4017,21.8841 16.3607,21.9571 L16.3607,18.3601 C16.3607,16.8911 15.8997,15.3271 15.0637,13.9551 C14.2077,12.5501 13.0467,11.4931 11.7917,10.9791 L8.2817,9.5391 L8.2817,2.5771 L19.5787,7.2091 C21.6607,8.0641 23.3637,10.8601 23.3637,13.4241 L23.3637,17.2851 L19.7607,18.7631 Z"/>
</svg>
